<svg xmlns="http://www.w3.org/2000/svg" viewBox="0 0 640 512"><path d="M400,96a48,48,0,1,0-48-48A48,48,0,0,0,400,96Zm-4,121a31.9,31.9,0,0,0,20,7h64a32,32,0,0,0,0-64H427.22L356,103a31.94,31.94,0,0,0-40.81.68l-112,96a32,32,0,0,0,3.08,50.92L288,305.12V416a32,32,0,0,0,64,0V288a32,32,0,0,0-14.25-26.62l-41.36-27.57,58.25-49.92Zm116,39A128,128,0,1,0,640,384,128,128,0,0,0,512,256Zm0,192a64,64,0,1,1,64-64A64,64,0,0,1,512,448ZM128,256A128,128,0,1,0,256,384,128,128,0,0,0,128,256Zm0,192a64,64,0,1,1,64-64A64,64,0,0,1,128,448Z"/></svg>