<svg xmlns="http://www.w3.org/2000/svg" viewBox="0 0 512 512"><path d="M256,112a56,56,0,1,0-56-56A56,56,0,0,0,256,112ZM432,448H80a16,16,0,0,0-16,16v32a16,16,0,0,0,16,16H432a16,16,0,0,0,16-16V464A16,16,0,0,0,432,448Zm72.87-263.84-28.51-15.92c-7.44-5-16.91-2.46-22.29,4.68a47.59,47.59,0,0,1-47.23,18.23C383.7,186.86,368,164.93,368,141.4A13.4,13.4,0,0,0,354.6,128H315.83c-6,0-11.61,4-12.86,9.91a48,48,0,0,1-93.94,0c-1.25-5.92-6.82-9.91-12.86-9.91H157.4A13.4,13.4,0,0,0,144,141.4c0,25.69-19,48.75-44.67,50.49a47.5,47.5,0,0,1-41.54-19.15c-5.28-7.09-14.73-9.45-22.09-4.54l-28.57,16a16,16,0,0,0-5.44,20.47L104.24,416H407.76L510.31,204.63A16,16,0,0,0,504.87,184.16Z"/></svg>