<svg xmlns="http://www.w3.org/2000/svg" viewBox="0 0 320 512"><path d="M8,287.88c0,51.64,22.14,73.83,56,84.6V416H256V372.48c33.86-10.77,56-33,56-84.6,0-30.61-10.73-67.1-26.69-102.56L185,285.65a8,8,0,0,1-11.31,0l-11.31-11.31a8,8,0,0,1,0-11.31L270.27,155.1C249.47,117.19,223.8,83,199.4,62.51,213.4,59.09,224,47.05,224,32A32,32,0,0,0,192,0H128A32,32,0,0,0,96,32c0,15,10.6,27.09,24.6,30.51C67.81,106.8,8,214.5,8,287.88ZM304,448H16A16,16,0,0,0,0,464v32a16,16,0,0,0,16,16H304a16,16,0,0,0,16-16V464A16,16,0,0,0,304,448Z"/></svg>