<svg xmlns="http://www.w3.org/2000/svg" viewBox="0 0 512 512"><path d="M74,208H64a16,16,0,0,0-16,16v16a16,16,0,0,0,16,16H79.94A535.78,535.78,0,0,1,64,384H192a535.78,535.78,0,0,1-15.94-128H192a16,16,0,0,0,16-16V224a16,16,0,0,0-16-16H182l33.89-90.38a16,16,0,0,0-15-21.62H144V64h24a8,8,0,0,0,8-8V40a8,8,0,0,0-8-8H144V8a8,8,0,0,0-8-8H120a8,8,0,0,0-8,8V32H88a8,8,0,0,0-8,8V56a8,8,0,0,0,8,8h24V96H55.09a16,16,0,0,0-15,21.62ZM247.16,459.58,224,448V432a16,16,0,0,0-16-16H48a16,16,0,0,0-16,16v16L8.85,459.58A16,16,0,0,0,0,473.89V496a16,16,0,0,0,16,16H240a16,16,0,0,0,16-16V473.89A16,16,0,0,0,247.16,459.58ZM339.93,301.8,336.64,384H463.36l-3.29-82.21L484.67,281A32,32,0,0,0,496,256.54V198a6,6,0,0,0-6-6H463.62a6,6,0,0,0-6,6v26H432.91V198a6,6,0,0,0-6-6H373.1a6,6,0,0,0-6,6v26H342.39V198a6,6,0,0,0-6-6H310a6,6,0,0,0-6,6v58.6A32,32,0,0,0,315.36,281ZM384,304a16,16,0,0,1,32,0v32H384ZM503.16,459.58,480,448V432a16,16,0,0,0-16-16H336a16,16,0,0,0-16,16v16l-23.15,11.58A16,16,0,0,0,288,473.89V496a16,16,0,0,0,16,16H496a16,16,0,0,0,16-16V473.89A16,16,0,0,0,503.16,459.58Z"/></svg>