<svg xmlns="http://www.w3.org/2000/svg" viewBox="0 0 512 512"><path d="M255.9.2h-64v64h64ZM0,64.17v64H64v-64ZM128,.2H64v64h64Zm64,255.9v64h64v-64ZM0,192.12v64H64v-64ZM383.85.2h-64v64h64Zm128,0h-64v64h64ZM128,256.1H64v64h64ZM511.8,448v-64h-64v64Zm0-128v-64h-64v64ZM383.85,512h64V448h-64Zm128-319.88v-64h-64v64ZM128,512h64V448H128ZM0,512H64V448H0Zm255.9,0h64V448h-64ZM0,320.07v64H64v-64ZM319.88,128.15v-64h-64v64Zm-64,128h64v-64h-64Zm-64,128v64h64v-64Zm128-64h64v-64h-64Zm0-127.95h64v-64h-64Zm0,191.93v64h64v-64ZM64,384.05v64h64v-64Zm128-255.9v-64H128v64Zm191.92,255.9h64v-64h-64Zm-128-191.93v-64h-64v64Zm128-127.95v64h64v-64Zm-128,255.9v64h64v-64Zm-64-127.95H128v64h64Zm191.92,64h64v-64h-64ZM128,128.15H64v64h64Zm0,191.92v64h64v-64Z"/></svg>