<svg xmlns="http://www.w3.org/2000/svg" viewBox="0 0 512 512"><path d="M116.65,219.35a15.68,15.68,0,0,0,22.65,0l96.75-99.83c28.15-29,26.5-77.1-4.91-103.88C203.75-7.7,163-3.5,137.86,22.44L128,32.58l-9.85-10.14C93.05-3.5,52.25-7.7,24.86,15.64c-31.41,26.78-33,74.85-5,103.88ZM260.57,319.84h-48l-7.08-14.24a27.39,27.39,0,0,0-25.66-17.78H108.12A27.39,27.39,0,0,0,82.46,305.6l-7,14.24h-48A27.45,27.45,0,0,0,0,347.3V484.55A27.44,27.44,0,0,0,27.43,512H260.57A27.45,27.45,0,0,0,288,484.55V347.3A27.45,27.45,0,0,0,260.57,319.84ZM144,468a52,52,0,1,1,52-52A52,52,0,0,1,144,468ZM499.4,352.1H438.82l22.36-50.75c2.1-6.65-3.93-13.21-12.18-13.21H373.41c-6.3,0-11.66,3.9-12.5,9.1l-16.8,106.93c-1,6.3,4.88,11.89,12.5,11.89h62.31l-24.2,83c-1.89,6.65,4.2,12.9,12.23,12.9a13.26,13.26,0,0,0,10.92-5.25l92.4-138.91C515.15,360.89,509.11,352.1,499.4,352.1ZM478.08.33,329.51,23.17C314.87,25.42,304,38.92,304,54.83V161.6a83.25,83.25,0,0,0-16-1.7c-35.35,0-64,21.48-64,48s28.65,48,64,48c35.2,0,63.73-21.32,64-47.66h0V99.66L464,82.44v47.18a83.25,83.25,0,0,0-16-1.7c-35.35,0-64,21.48-64,48s28.65,48,64,48c35.2,0,63.73-21.32,64-47.66l0,0V32C512,12.52,496-2.42,478.08.33Z"/></svg>