<svg xmlns="http://www.w3.org/2000/svg" viewBox="0 0 640 512"><path d="M224,256A128,128,0,1,0,96,128,128,128,0,0,0,224,256Zm96,64a63.08,63.08,0,0,1,8.1-30.5c-4.8-.5-9.5-1.5-14.5-1.5H296.9a174.08,174.08,0,0,1-145.8,0H134.4A134.43,134.43,0,0,0,0,422.4V464a48,48,0,0,0,48,48H328.9a63.54,63.54,0,0,1-8.9-32Zm288-32H576V208a80,80,0,0,0-160,0v80H384a32,32,0,0,0-32,32V480a32,32,0,0,0,32,32H608a32,32,0,0,0,32-32V320A32,32,0,0,0,608,288ZM496,432a32,32,0,1,1,32-32A32,32,0,0,1,496,432Zm32-144H464V208a32,32,0,0,1,64,0Z"/></svg>